<svg xmlns="http://www.w3.org/2000/svg" viewBox="0 0 40 40" id="FileSharing"><path d="M30.8 10.9c-1.2 0-2.4.2-3.6.7-.5.2-.7.8-.5 1.3.2.5.8.7 1.3.5.9-.4 1.8-.6 2.8-.6 3.9 0 7.1 3.2 7.1 7.1S34.7 27 30.8 27c-3.9 0-7.1-3.2-7.1-7.1 0-.6-.5-1-1-1s-1 .4-1 1c0 1.3.3 2.6.8 3.8l-11.9 6.5C9.5 28.9 7.8 28 5.9 28c-3.3 0-6 2.7-6 6s2.7 6 6 6 6-2.7 6-6c0-.7-.1-1.4-.3-2l11.9-6.6c1.7 2.2 4.3 3.7 7.3 3.7 5 0 9.1-4.1 9.1-9.1s-4.1-9.1-9.1-9.1zM5.9 38c-2.2 0-4-1.8-4-4s1.8-4 4-4c1.5 0 2.8.8 3.5 2.1.3.6.5 1.2.5 1.9 0 2.2-1.8 4-4 4z" fill="#595bd4" class="color000000 svgShape"></path><path d="M31.3 19.1 11.5 8c.2-.6.4-1.3.4-2 0-3.3-2.7-6-6-6s-6 2.7-6 6 2.7 6 6 6c1.9 0 3.5-.9 4.7-2.2l19.7 11.1c.2.1.3.1.5.1.3 0 .7-.2.9-.5.2-.5 0-1.1-.4-1.4zM9.7 7 6.4 5.1c-.5-.2-1.1-.1-1.4.4s-.1 1.1.4 1.4l3.4 1.9C8 9.5 7 10 5.9 10c-2.2 0-4-1.8-4-4s1.8-4 4-4 4 1.8 4 4c0 .4-.1.7-.2 1z" fill="#595bd4" class="color000000 svgShape"></path></svg>